<svg width="226.777" height="226.777" xmlns="http://www.w3.org/2000/svg">

 <g>
  <title>background</title>
  <rect fill="none" id="canvas_background" height="402" width="582" y="-1" x="-1"/>
 </g>
 <g>
  <title>Layer 1</title>
  <path fill="#f78668" id="XRP" d="m196.461395,139.515c-7.59,-4.162 -15.848,-6.09 -23.981,-6.026l0.069,-0.039c-11.158,0.128 -20.311,-8.55 -20.442,-19.38c-0.129,-10.686 8.565,-19.467 19.505,-19.832l0,-0.005l-0.02,-0.01c8.276,-0.04 16.649,-2.145 24.277,-6.547c22.81,-13.165 30.309,-41.787 16.749,-63.93c-13.563,-22.144 -43.047,-29.423 -65.857,-16.258c-22.81,13.164 -30.308,41.787 -16.747,63.93c5.648,9.227 2.526,21.152 -6.978,26.638c-9.369,5.407 -21.433,2.534 -27.188,-6.383l-0.005,0.002l0,0.025c-4.147,-6.951 -10.189,-12.956 -17.913,-17.192c-23.103,-12.672 -52.417,-4.764 -65.47,17.667c-13.053,22.426 -4.903,50.882 18.201,63.553c23.105,12.672 52.415,4.763 65.469,-17.667c0.079,-0.135 0.149,-0.275 0.226,-0.411l0,0.033l0.005,0.002c5.545,-9.054 17.555,-12.191 27.047,-6.985c9.628,5.281 13.021,17.136 7.583,26.48c-13.055,22.431 -4.904,50.885 18.199,63.555c23.104,12.673 52.417,4.763 65.47,-17.667c13.051,-22.428 4.904,-50.881 -18.199,-63.553z"/>
 </g>
</svg>